<svg viewBox="0 0 196 152" width="100%" height="100%" fill="currentColor" xmlns="http://www.w3.org/2000/svg">
  <path d="M 64.547683,145.54108 V 98.915077 l -10.679,6.165003 c -1.151425,0.65465 -2.142639,-1.06213 -1,-1.732 l 11.679,-6.742003 v -18.43 l -18.8,10.854 c -1.151425,0.65465 -2.142639,-1.062132 -1,-1.732 l 19.8,-11.431 v -26.166 l -45.104,26.04 c -0.882619,0.509218 -1.184913,1.637782 -0.675,2.52 l 39.656,68.687003 c 0.509218,0.88262 1.637782,1.18491 2.52,0.675 l 3.603,-2.08 z m 0.149,2.224 -2.753,1.589 c -1.838556,1.06149 -4.189508,0.43156 -5.251,-1.407 l -39.656,-68.686003 c -1.06149,-1.838556 -0.431555,-4.189508 1.407,-5.251 l 46.104,-26.618 v -12.844 c 0,-2.761424 2.238576,-5 5,-5 h 82.000007 c 2.76142,0 5,2.238576 5,5 V 146.54808 c 0,2.76142 -2.23858,5 -5,5 H 69.547683 c -2.292942,-9e-5 -4.292204,-1.55919 -4.851,-3.783 z M 100.96568,71.441077 c -0.504,0.241 -1.124997,0.06 -1.387997,-0.403 -0.262,-0.464 -0.066,-1.036 0.437997,-1.278 l 0.382,-0.184 c 0.167,-0.08 0.305,-0.146 0.447,-0.211 0.36423,-0.168752 0.73448,-0.324188 1.11001,-0.466 2.316,-0.87 5.261,-1.351 9.504,-1.351 3.242,0 5.882,0.288 7.967,0.805 1.638,0.405 2.855,0.934 3.642,1.502 0.447,0.323 0.525,0.918 0.175,1.33 -0.35,0.412 -0.997,0.484 -1.444,0.16 -0.555,-0.4 -1.523,-0.82 -2.907,-1.163 -1.9,-0.47 -4.363,-0.74 -7.433,-0.74 -3.988,0 -6.67,0.438 -8.727,1.212 -0.33,0.124 -0.64,0.255 -0.968,0.406 -0.129,0.059 -0.256,0.12 -0.41301,0.195 z M 79.547683,110.54808 h 62.000007 c 1.33333,0 1.33333,2 0,2 H 79.547683 c -1.333333,0 -1.333333,-2 0,-2 z m 0,20 h 62.000007 c 1.33333,0 1.33333,2 0,2 H 79.547683 c -1.333333,0 -1.333333,-2 0,-2 z m 0,-40.000003 h 62.000007 c 1.33333,0 1.33333,2 0,2 H 79.547683 c -1.333333,0 -1.333333,-2 0,-2 z m -10,-59 c -1.656854,0 -3,1.343146 -3,3 V 146.54808 c 0,1.65685 1.343146,3 3,3 h 82.000007 c 1.65685,0 3,-1.34315 3,-3 V 34.548077 c 0,-1.656854 -1.34315,-3 -3,-3 z m 18.466,18.846 c -1.128,-0.712 -0.06,-2.404 1.068,-1.692 l 10,6.314 c 0.612066,0.386316 0.623721,1.274761 0.022,1.677 l -10,6.686 c -1.101561,0.709582 -2.188194,-0.914504 -1.112,-1.662 l 8.72,-5.831 z m 45.048007,0.047 -8.842,5.3 8.864,5.628 c 1.12615,0.714633 0.0541,2.403633 -1.072,1.689 l -10.232,-6.497 c -0.62708,-0.398988 -0.61519,-1.318363 0.022,-1.701 l 10.231,-6.135 c 1.144,-0.686 2.173,1.03 1.029,1.716 z m -131.5660064,27.073 c 0.1429856,-0.53355 0.6914837,-0.850112 1.225,-0.707 l 7.7270004,2.07 c 1.295634,0.340243 0.775405,2.284313 -0.5170004,1.932 l -7.728,-2.07 c -0.5335502,-0.142986 -0.850112,-0.691484 -0.707,-1.225 z m 15.7069994,-16.707 c 0.533516,-0.143112 1.082014,0.17345 1.225,0.707 l 2.07,7.727 c 0.302295,1.262115 -1.561028,1.76196 -1.931,0.518 l -2.07,-7.727 c -0.143179,-0.533213 0.172855,-1.081571 0.706,-1.225 z m -12.2579994,3.448 c 0.3904999,-0.390382 1.0235001,-0.390382 1.414,0 l 7.0699994,7.071 c 0.884189,0.94156 -0.470815,2.297523 -1.413,1.414 l -7.0709994,-7.07 c -0.3910489,-0.390614 -0.3910489,-1.024386 0,-1.415 z" />
	<path d="M 172.8077,6.8749998 V 1.8749997 c 0,-1.33333273 2,-1.33333273 2,0 v 5.0000001 h 5 c 1.33333,0 1.33333,2 0,2 h -5 V 13.875 c 0,1.333333 -2,1.333333 -2,0 V 8.8749998 h -5 c -1.33333,0 -1.33333,-2 0,-2 z m 14,27.0000012 v -5 c 0,-1.333333 2,-1.333333 2,0 v 5 h 5 c 1.33333,0 1.33333,2 0,2 h -5 v 5 c 0,1.333333 -2,1.333333 -2,0 v -5 h -5 c -1.33333,0 -1.33333,-2 0,-2 z m -20,1 c -6.66666,0 -6.66666,-10 0,-10 2.76143,0 5,2.238576 5,5 0,2.761424 -2.23857,5 -5,5 z m 0,-2 c 4,0 4,-6 0,-6 -4,0 -4,6 0,6 z"/>
</svg>
