<svg width="100%" height="100%" viewBox="0 0 124 78" fill="currentColor" xmlns="http://www.w3.org/2000/svg">
	<path d="M 4.5216663,77.229157 C 3.9660414,77.01749 3.1722915,76.594157 2.7489582,76.303116 L 1.9552083,75.747491 1.3202084,74.636241 0.68520849,73.524991 0.57937517,72.651866 0.50000018,71.805199 21.005206,71.778741 c 11.271249,-0.02646 20.76979,-0.02646 21.060831,0 l 0.582083,0.02646 0.132292,0.79375 0.15875,0.767292 0.635,0.423333 0.635,0.396875 17.806456,0.02646 h 17.779998 l 0.635,-0.423333 0.661458,-0.423333 0.132292,-0.767292 0.15875,-0.740833 0.449791,-0.105833 c 0.47625,-0.105834 41.592493,0 41.698333,0.105833 0.0264,0.05292 -0.0794,0.661458 -0.26459,1.349375 l -0.3175,1.296458 -0.52916,0.687917 c -0.68792,0.926041 -2.0373,1.825624 -3.22792,2.169583 l -0.9525,0.264583 -56.356244,-0.02646 H 5.5270829 Z"/>
	<path d="m 29.97458,70.482283 -15.239998,-0.132292 -1.27,-0.79375 -1.296458,-0.79375 -0.873125,-1.137708 -0.846667,-1.137708 -0.291041,-0.978958 -0.2645837,-0.978958 V 35.292704 6.0562494 L 10.527707,4.7333329 11.136249,3.4104164 12.194582,2.4579165 13.252915,1.5054166 14.549373,1.0027084 15.845832,0.5000001 h 46.302078 46.30208 l 1.32291,0.6085416 1.32292,0.6085416 0.74083,0.7143749 c 0.42334,0.3968749 1.08479,1.2435415 1.45521,1.9049998 l 0.71438,1.1906248 0.0794,29.4481212 0.0529,29.47458 -0.26459,1.005416 -0.29104,1.031875 -0.84666,1.137708 -0.87313,1.137708 -1.29646,0.79375 -1.27,0.79375 -32.041034,0.132292 c -17.621248,0.07937 -38.893745,0.07937 -47.281036,0 z m 77.81395,-6.588124 0.26458,-0.529167 V 35.372079 7.3527076 l -0.3175,-0.3175 -0.3175,-0.3174999 H 62.015618 16.613123 l -0.3175,0.3174999 -0.3175,0.3175 V 35.372079 63.364992 l 0.264584,0.529167 0.291041,0.502708 h 45.48187 45.481872 z M 63.497284,4.7333329 63.920618,4.098333 63.735409,3.5427081 63.550201,2.9870831 62.94166,2.6960415 62.359576,2.4314582 l -0.582083,0.2910416 -0.555625,0.3175 -0.15875,0.6614582 -0.15875,0.6614583 0.449792,0.5027082 0.47625,0.5291667 h 0.608541 0.635 z"/>
	<path d="m 41.219371,52.58 c -0.07938,-0.211667 -0.105834,-1.42875 -0.05292,-2.725208 L 41.245821,47.5 H 62.01561 82.785399 v 2.645833 2.645833 l -20.716872,0.07938 -20.716873,0.05292 z"/>
	<path d="m 34.89583,36.086454 -1.852083,-1.852083 2.381249,-2.38125 2.38125,-2.38125 -2.38125,-2.381249 -2.381249,-2.38125 1.931458,-1.905 1.904999,-1.931458 2.38125,2.38125 2.38125,2.38125 2.38125,-2.38125 2.381249,-2.38125 1.905,1.931458 1.931458,1.905 -2.38125,2.38125 -2.381249,2.381249 2.196041,2.196042 2.169583,2.169583 v 0.396875 0.396875 l -1.74625,1.693333 -1.746249,1.693333 -2.354792,-2.354791 -2.354791,-2.354792 -2.328333,2.328333 c -1.27,1.27 -2.38125,2.301875 -2.434167,2.301875 -0.07937,0 -0.978958,-0.846667 -1.984374,-1.852083 z"/>
	<path d="m 75.668116,36.033537 -1.852083,-1.825624 2.354792,-2.354792 2.381249,-2.38125 -2.354791,-2.354791 -2.354792,-2.38125 1.878542,-1.931458 1.878541,-1.931458 2.407708,2.38125 2.38125,2.38125 2.38125,-2.38125 2.381249,-2.38125 1.905,1.931458 1.931458,1.905 -2.381249,2.38125 -2.38125,2.381249 2.38125,2.38125 2.381249,2.38125 -1.931458,1.905 -1.905,1.931458 -2.381249,-2.38125 -2.38125,-2.38125 -2.328333,2.328333 c -1.27,1.27 -2.38125,2.275417 -2.434166,2.248958 -0.07938,0 -0.9525,-0.846666 -1.957917,-1.852083 z"/>
</svg>
