<svg xmlns="http://www.w3.org/2000/svg" viewBox='0 0 24 24' width='1em' height='1em' fill="currentColor">
    <circle cx="12" cy="6.5" r="3.5" />
    <path d="m 12,12.5 c -1.66875,0 -5,1.265555 -5,3.777778 V 21 H 17 V 16.277778 C 17,13.765555
        13.66875,12.5 12,12.5 Z"/>
    <path d="M 17.747655,10 C 19.820826,10 21.5,8.4337503 21.5,6.5000002 21.5,4.5662501 19.820826,3 17.747655,3
        17.306754,3 16.893996,3.0874999 16.5,3.21 c 0.778612,0.90125 1.247655,2.0475001 1.247655,3.2900002 0,1.2425
        -0.469043,2.3887501 -1.247655,3.2900001 C 16.893996,9.9125001 17.306754,10 17.747655,10 Z"/>
    <path d="M 7,12.5 C 5.7014218,13.432659 4.7914693,14.300911 4.7914693,15.985711 V 21 H 1 V 15.985711 C
        1,13.799481 4.3838867,12.901143 7,12.5 Z"/>
    <path d="M 6.252345,10 C 4.179174,10 2.5,8.4337503 2.5,6.5000002 2.5,4.5662501 4.179174,3 6.252345,3
        6.693246,3 7.106004,3.0875 7.5,3.21 6.721388,4.11125 6.252345,5.2575001 6.252345,6.5000002 c 0,1.2425
        0.469043,2.3887501 1.247655,3.2900001 C 7.106004,9.9125001 6.693246,10 6.252345,10 Z"/>
    <path d="m 17,12.5 c 1.298578,0.932659 2.208531,1.800911 2.208531,3.485711 V 21 H 23 V 15.985711
        C 23,13.799481 19.616113,12.901143 17,12.5 Z"/>
</svg>