<svg xmlns="http://www.w3.org/2000/svg" viewBox='0 0 128 128'  width='1em' height='1em' fill="currentColor">
    <path d="m 111.25,98.375 c 0,4.30756 -3.92554,7.81249 -8.75,7.81249 H 51.75 c -1.953368,0 -3.799927,-0.56152
        -5.33972,-1.62276 C 44.243285,103.07089 43,100.81488 43,98.375 h 33.25 c 9.64978,0 17.5,-7.009124 17.5,-15.625
        V 37.437498 h 8.75 c 4.82446,0 8.75,3.504942 8.75,7.812502 0,17.708337 0,35.41666 0,53.125 z M 120,45.25 c
        0,-8.615878 -7.85022,-15.625002 -17.5,-15.625002 H 93.75 C 93.75,21.009124 85.89978,14 76.25,14 H 25.5 C
        15.85022,14 8,21.009124 8,29.624998 V 82.75 c 0,8.615876 7.85022,15.625 17.5,15.625 h 8.750002 c 0,4.879
        2.483153,9.38873 6.812863,12.37412 C 44.149293,112.87543 47.844115,114 51.75,114 h 50.75 c 9.64978,0
        17.5,-7.00913 17.5,-15.625 0,-17.70834 0,-35.416663 0,-53.125 z M 76.25,90.562498 H 25.5 c -4.824463,0
        -8.75,-3.504948 -8.75,-7.812498 V 29.624997 c 0,-4.307553 3.925537,-7.812497 8.75,-7.812497 h 50.75 c
        4.82446,0 8.75,3.504944 8.75,7.812497 V 74.937502 82.75 c 0,4.30755 -3.92554,7.812498 -8.75,7.812498 z"/>
    <path d="M 64.16789,63.53916 H 61.430543 L 60.46034,62.651449 c 3.395703,-3.748108 5.440055,-8.614079
        5.440055,-13.907467 0,-11.803263 -10.083155,-21.370808 -22.5225,-21.370808 -12.439352,0 -22.522502,9.567545
        -22.522502,21.370808 0,11.803261 10.08315,21.370814 22.522502,21.370814 5.578648,0 10.706846,-1.939818
        14.656945,-5.161871 l 0.935551,0.920584 v 2.597373 l 17.325002,16.406211 5.162845,-4.898852 z m
        -20.789994,0 c -8.627851,0 -15.592503,-6.608514 -15.592503,-14.795178 0,-8.186665 6.964652,-14.795177
        15.592503,-14.795177 8.627844,0 15.592495,6.608512 15.592495,14.795177 0,8.186664 -6.964651,14.795178
        -15.592495,14.795178 z"/>
</svg>