<svg xmlns="http://www.w3.org/2000/svg" viewBox='0 0 128 128'  width='1em' height='1em' fill="currentColor">
    <path d="m 54.390235,53.822823 c 0,-2.180005 -1.73192,-3.947138 -3.868484,-3.947138 H 35.047815 c -2.136564,0
        -3.868483,1.767133 -3.868483,3.947138 v 7.080774 H 14.351426 v 7.894281 h 16.827906 v 6.734214 c 0,2.180005
        1.731919,3.947139 3.868483,3.947139 h 15.473936 c 2.136564,0 3.868484,-1.767134 3.868484,-3.947139 V 68.797878
        H 113.38463 V 60.903597 H 54.390235 Z m -7.736968,17.76213 H 38.916299 V 57.769964 h 7.736968 z"/>
    <path d="m 97.717262,89.741796 c 0,-2.180007 -1.731928,-3.94714 -3.868486,-3.94714 H 78.374835 c -2.136562,0
        -3.868484,1.767133 -3.868484,3.94714 v 6.907499 H 14.351426 v 7.894275 h 60.154925 v 6.90748 c 0,2.18002
        1.731922,3.94715 3.868484,3.94715 h 15.473932 c 2.136567,0 3.868486,-1.76713 3.868486,-3.94715 v -6.90748 H
        113.38463 V 96.649295 H 97.717262 Z M 89.980288,107.50392 H 82.243321 V 93.688935 h 7.736967 z"/>
    <path d="m 98.104106,25.403417 v -7.10485 c 0,-2.180006 -1.731918,-3.947141 -3.868482,-3.947141 h -15.47394
        c -2.136563,0 -3.868483,1.767135 -3.868483,3.947141 v 7.10485 H 14.351426 v 7.89428 h 60.541775 v 6.710138
        c 0,2.180006 1.73192,3.94714 3.868483,3.94714 h 15.473932 c 2.136572,0 3.86849,-1.767134 3.86849,-3.94714 v
        -6.710138 h 15.280524 v -7.89428 z M 90.367137,36.060694 H 82.630168 V 22.245707 h 7.736969 z"/>
</svg>