<svg xmlns="http://www.w3.org/2000/svg" viewBox='0 0 128 128' width='1em' height='1em' fill="currentColor">
    <path d="m 54.672256,15.151063 c -17.312858,0 -32.699095,12.04433 -38.132505,29.558571 -8.5669397,5.384095
        -14.096325,15.326083 -14.096325,26.423165 0,16.863203 12.742691,30.582611 28.405306,30.582611 h 0.397074
        3.979131 c 3.211659,0 3.211659,-10.366984 0,-10.366984 h -3.979131 -0.397074 c -10.349889,0 -18.770327,
        -9.068779 -18.770327,-20.215627 0,-7.814122 4.058652,-14.788381 10.591889,-18.201449 1.246046,-0.651049
        2.171462,-1.847632 2.540005,-3.284236 3.643711,-14.206917 15.75885,-24.129063 29.461957,-24.129063 12.931588,0
        24.514325,8.817681 28.822611,21.941771 0.680226,2.071842 2.500606,3.45735 4.542733,3.45735 h 9.328248 c
        10.350132,0 18.770332,9.06878 18.770332,20.215627 0,11.146848 -8.4202,20.215627 -18.770332,20.215627 H
        89.050974 88.6539 84.193017 c -3.211659,0 -3.211659,10.366984 0,10.366984 h 4.460883 0.397074 8.314874
        c 15.662872,0 28.405312,-13.719408 28.405312,-30.582611 0,-16.863202 -12.74244,-30.582615 -28.405312,-30.582615
        H 91.287053 C 84.823668,25.217409 70.51722,15.151063 54.672256,15.151063 Z"/>
    <path d="m 54.767156,54.059168 -22.70682,18.613176 8.00415,6.561135 13.05642,-10.65604 v 44.625071 h 11.35341
        V 68.577439 l 12.99966,10.65604 8.00415,-6.561135 -22.70682,-18.613176 c -2.21427,-1.804316
        -5.78988,-1.804316 -8.00415,0 z"/>
</svg>